<svg width="150" height="18" viewBox="0 0 150 18" fill="none" xmlns="http://www.w3.org/2000/svg">
<path d="M7.56453 2.58362L1.85752 12.5039C0.706954 14.5039 2.15058 16.9999 4.45792 16.9999H15.6183C17.8998 16.9999 19.3463 14.5541 18.2473 12.5547L12.7939 2.63441C11.6669 0.584226 8.73115 0.555722 7.56453 2.58362Z" fill="#DBEB24" stroke="black" stroke-width="2"/>
<path d="M9.99906 10.8001C9.75906 10.8001 9.58573 10.7701 9.47906 10.7101C9.3724 10.6434 9.30573 10.5601 9.27906 10.4601C9.25906 10.3534 9.24906 10.2401 9.24906 10.1201V6.77007C9.24906 6.65007 9.25906 6.53674 9.27906 6.43007C9.30573 6.3234 9.3724 6.23674 9.47906 6.17007C9.58573 6.1034 9.7624 6.07007 10.0091 6.07007C10.2557 6.07007 10.4291 6.1034 10.5291 6.17007C10.6357 6.23674 10.6991 6.3234 10.7191 6.43007C10.7457 6.53674 10.7591 6.65007 10.7591 6.77007V10.1301C10.7591 10.2434 10.7457 10.3534 10.7191 10.4601C10.6991 10.5668 10.6357 10.6501 10.5291 10.7101C10.4291 10.7701 10.2524 10.8001 9.99906 10.8001ZM9.99906 13.1001C9.6724 13.1001 9.45573 13.0368 9.34906 12.9101C9.2424 12.7834 9.18906 12.5734 9.18906 12.2801C9.18906 12.1468 9.2024 12.0201 9.22906 11.9001C9.25573 11.7734 9.32573 11.6701 9.43906 11.5901C9.5524 11.5101 9.7424 11.4701 10.0091 11.4701C10.3424 11.4701 10.5591 11.5334 10.6591 11.6601C10.7657 11.7801 10.8191 11.9901 10.8191 12.2901C10.8191 12.4234 10.8057 12.5534 10.7791 12.6801C10.7524 12.8001 10.6824 12.9001 10.5691 12.9801C10.4557 13.0601 10.2657 13.1001 9.99906 13.1001Z" fill="black"/>
<path d="M25.0215 5.23242C25.0215 5.45378 24.9548 5.63607 24.8213 5.7793C24.6878 5.92253 24.512 5.99414 24.2939 5.99414C24.0889 5.99414 23.9163 5.9209 23.7764 5.77441C23.6396 5.62467 23.5713 5.44401 23.5713 5.23242C23.5713 5.01758 23.6364 4.83691 23.7666 4.69043C23.8968 4.54395 24.0726 4.4707 24.2939 4.4707C24.499 4.4707 24.6715 4.54395 24.8115 4.69043C24.9515 4.83691 25.0215 5.01758 25.0215 5.23242ZM24.4551 12.1611C24.1621 12.1611 23.9489 12.0667 23.8154 11.8779C23.7764 11.751 23.7568 11.5866 23.7568 11.3848C23.7568 10.9941 23.7894 10.4505 23.8545 9.75391C23.9229 9.05729 23.9831 8.50391 24.0352 8.09375C24.0905 7.68359 24.1312 7.38737 24.1572 7.20508C24.2126 7.16276 24.2809 7.1416 24.3623 7.1416C24.4209 7.24577 24.5104 7.72591 24.6309 8.58203C24.7546 9.4349 24.8164 10.1673 24.8164 10.7793C24.8164 11.3262 24.7969 11.6842 24.7578 11.8535C24.7188 12.0228 24.6178 12.1253 24.4551 12.1611ZM31.3008 7.09766C31.3008 7.39388 31.2845 7.65755 31.252 7.88867C31.2194 8.11979 31.1755 8.31836 31.1201 8.48438C31.068 8.64714 30.9948 8.78711 30.9004 8.9043C30.8092 9.02148 30.7116 9.11589 30.6074 9.1875C30.5065 9.25911 30.3828 9.31608 30.2363 9.3584C30.0931 9.39746 29.9499 9.4235 29.8066 9.43652C29.6667 9.44954 29.5023 9.45605 29.3135 9.45605H27.375V12H26.3887V4.72461H29.0254C29.3281 4.72461 29.5837 4.73763 29.792 4.76367C30.0036 4.78646 30.1989 4.8304 30.3779 4.89551C30.557 4.96061 30.7002 5.0485 30.8076 5.15918C30.915 5.26986 31.0078 5.41471 31.0859 5.59375C31.1641 5.77279 31.2178 5.98438 31.2471 6.22852C31.2796 6.4694 31.2975 6.75911 31.3008 7.09766ZM30.3145 7.04395C30.3112 6.80957 30.3047 6.61914 30.2949 6.47266C30.2852 6.32617 30.2656 6.18783 30.2363 6.05762C30.2103 5.92741 30.1745 5.82812 30.1289 5.75977C30.0866 5.69141 30.0264 5.63281 29.9482 5.58398C29.8734 5.5319 29.7839 5.49772 29.6797 5.48145C29.5788 5.46517 29.4518 5.45703 29.2988 5.45703H27.375V8.71875H29.0986C29.3525 8.71875 29.5592 8.69759 29.7188 8.65527C29.8783 8.61296 30.002 8.54297 30.0898 8.44531C30.181 8.3444 30.2412 8.22721 30.2705 8.09375C30.3031 7.96029 30.3193 7.78776 30.3193 7.57617C30.3193 7.52409 30.3177 7.43945 30.3145 7.32227C30.3145 7.20508 30.3145 7.1123 30.3145 7.04395ZM36.584 9.24609C36.1934 9.28516 35.9508 9.30794 35.8564 9.31445H33.1953C33.1986 9.78646 33.2116 10.304 33.2344 10.8672C33.2507 11.0853 33.3434 11.2301 33.5127 11.3018C33.6852 11.3701 34.0189 11.4043 34.5137 11.4043C34.6992 11.4043 34.8587 11.3978 34.9922 11.3848C35.1257 11.3685 35.2331 11.3424 35.3145 11.3066C35.3991 11.2676 35.4642 11.2318 35.5098 11.1992C35.5586 11.1634 35.5944 11.1097 35.6172 11.0381C35.64 10.9632 35.6546 10.9014 35.6611 10.8525C35.6676 10.8005 35.6742 10.724 35.6807 10.623C35.6872 10.5189 35.6953 10.4342 35.7051 10.3691L36.4521 10.5059C36.4456 10.7337 36.4294 10.9274 36.4033 11.0869C36.3773 11.2432 36.3333 11.3815 36.2715 11.502C36.2096 11.6224 36.1364 11.7184 36.0518 11.79C35.9671 11.8584 35.8532 11.9154 35.71 11.9609C35.5667 12.0065 35.4089 12.0358 35.2363 12.0488C35.0638 12.0651 34.8506 12.0732 34.5967 12.0732C34.2712 12.0732 33.988 12.0537 33.7471 12.0146C33.5062 11.9788 33.2995 11.9333 33.127 11.8779C32.9577 11.8226 32.8177 11.7331 32.707 11.6094C32.5964 11.4824 32.5085 11.362 32.4434 11.248C32.3815 11.1341 32.3359 10.9665 32.3066 10.7451C32.2773 10.5238 32.2578 10.3236 32.248 10.1445C32.2415 9.96224 32.2383 9.71159 32.2383 9.39258C32.2383 8.94336 32.2432 8.59342 32.2529 8.34277C32.266 8.09212 32.2985 7.84147 32.3506 7.59082C32.4027 7.33691 32.4727 7.15299 32.5605 7.03906C32.6484 6.92513 32.7786 6.81934 32.9512 6.72168C33.1237 6.62402 33.3271 6.56217 33.5615 6.53613C33.7959 6.50684 34.0938 6.49219 34.4551 6.49219C34.7057 6.49219 34.9222 6.50033 35.1045 6.5166C35.2868 6.52962 35.4544 6.55892 35.6074 6.60449C35.7604 6.65007 35.8857 6.70215 35.9834 6.76074C36.0843 6.81934 36.1722 6.9056 36.2471 7.01953C36.3252 7.13346 36.3838 7.25228 36.4229 7.37598C36.4652 7.49642 36.4993 7.65755 36.5254 7.85938C36.5514 8.0612 36.5677 8.26628 36.5742 8.47461C36.5807 8.67969 36.584 8.93685 36.584 9.24609ZM33.2002 8.80176H35.6221C35.6156 8.38509 35.5993 8.00423 35.5732 7.65918C35.5602 7.46061 35.474 7.32878 35.3145 7.26367C35.1582 7.19531 34.8701 7.16113 34.4502 7.16113C33.9847 7.16113 33.6901 7.18717 33.5664 7.23926C33.5111 7.25553 33.4622 7.28483 33.4199 7.32715C33.3809 7.36621 33.3483 7.42318 33.3223 7.49805C33.2962 7.57292 33.2751 7.6429 33.2588 7.70801C33.2458 7.77311 33.2344 7.86426 33.2246 7.98145C33.2181 8.09538 33.2132 8.1849 33.21 8.25C33.2067 8.31185 33.2035 8.40788 33.2002 8.53809C33.2002 8.66829 33.2002 8.75618 33.2002 8.80176ZM38.8936 12H37.9316V4.74414L38.8936 4.66602V12ZM41.4277 12H40.4658V6.64355H41.4277V12ZM41.4277 4.57324V5.41797H40.4658V4.57324H41.4277ZM47.1992 6.64355V11.3213C47.1992 11.6436 47.1878 11.9154 47.165 12.1367C47.1455 12.3581 47.1064 12.5648 47.0479 12.7568C46.9925 12.9489 46.916 13.1019 46.8184 13.2158C46.7207 13.333 46.5905 13.4339 46.4277 13.5186C46.2682 13.6032 46.0794 13.6618 45.8613 13.6943C45.6432 13.7269 45.3812 13.7432 45.0752 13.7432C44.4372 13.7432 43.9294 13.6764 43.5518 13.543L43.6152 12.8789C43.9798 12.9798 44.4128 13.0303 44.9141 13.0303C45.1517 13.0303 45.3519 13.0173 45.5146 12.9912C45.6807 12.9652 45.8092 12.9326 45.9004 12.8936C45.9948 12.8545 46.0664 12.7975 46.1152 12.7227C46.1673 12.651 46.1999 12.5794 46.2129 12.5078C46.2292 12.4362 46.2373 12.3451 46.2373 12.2344L46.2324 11.3604C46.1445 11.5882 45.9932 11.7542 45.7783 11.8584C45.5635 11.9626 45.2607 12.0146 44.8701 12.0146C44.5902 12.0146 44.346 11.9951 44.1377 11.9561C43.9294 11.917 43.752 11.8682 43.6055 11.8096C43.459 11.751 43.3369 11.6598 43.2393 11.5361C43.1449 11.4092 43.07 11.2904 43.0146 11.1797C42.9593 11.0658 42.9186 10.9046 42.8926 10.6963C42.8665 10.4847 42.8503 10.2959 42.8438 10.1299C42.8372 9.96061 42.834 9.73112 42.834 9.44141C42.834 9.07357 42.8372 8.78548 42.8438 8.57715C42.8503 8.36882 42.8649 8.14421 42.8877 7.90332C42.9105 7.65918 42.9479 7.47526 43 7.35156C43.0521 7.22786 43.1188 7.10254 43.2002 6.97559C43.2848 6.84538 43.3939 6.7526 43.5273 6.69727C43.6608 6.64193 43.8171 6.59635 43.9961 6.56055C44.1784 6.52474 44.3949 6.50684 44.6455 6.50684C45.0719 6.50684 45.4137 6.56543 45.6709 6.68262C45.9281 6.79655 46.1152 6.9821 46.2324 7.23926L46.3252 6.64355H47.1992ZM46.2373 10.9111V7.93262C46.2373 7.65918 46.1462 7.46387 45.9639 7.34668C45.7848 7.22624 45.4626 7.16602 44.9971 7.16602C44.5413 7.16602 44.2288 7.20671 44.0596 7.28809C43.8773 7.37598 43.7861 7.73242 43.7861 8.35742C43.7861 9.29818 43.7992 10.1185 43.8252 10.8184C43.835 10.9714 43.874 11.0837 43.9424 11.1553C44.014 11.2269 44.1344 11.2773 44.3037 11.3066C44.473 11.3327 44.7383 11.3457 45.0996 11.3457C45.8255 11.3457 46.2048 11.2008 46.2373 10.9111ZM51.0713 6.52148L51.0322 7.33691C50.9085 7.32064 50.7913 7.3125 50.6807 7.3125C50.4495 7.3125 50.2624 7.33529 50.1191 7.38086C49.9759 7.42643 49.8669 7.50456 49.792 7.61523C49.7204 7.72591 49.6715 7.85286 49.6455 7.99609C49.6227 8.13607 49.6113 8.32487 49.6113 8.5625C49.6113 8.69596 49.6162 8.89128 49.626 9.14844C49.639 9.4056 49.6455 9.58952 49.6455 9.7002V12H48.6836V6.64355H49.5576L49.6553 7.24414C49.7562 7.00977 49.9092 6.8291 50.1143 6.70215C50.3193 6.57194 50.5651 6.50684 50.8516 6.50684C50.9232 6.50684 50.9964 6.51172 51.0713 6.52148ZM54.2061 11.3994C54.6683 11.3896 54.9889 11.3555 55.168 11.2969C55.3503 11.2383 55.4414 11.1227 55.4414 10.9502C55.4772 10.4847 55.4951 9.94596 55.4951 9.33398C55.4951 9.13216 55.487 8.84408 55.4707 8.46973C55.4544 8.09212 55.4463 7.81217 55.4463 7.62988C55.4463 7.57454 55.4365 7.52409 55.417 7.47852C55.4007 7.43294 55.3714 7.39551 55.3291 7.36621C55.29 7.33366 55.2493 7.30599 55.207 7.2832C55.168 7.26042 55.111 7.24251 55.0361 7.22949C54.9645 7.21647 54.9027 7.20508 54.8506 7.19531C54.8018 7.18555 54.7301 7.17904 54.6357 7.17578C54.5446 7.17253 54.473 7.1709 54.4209 7.1709C54.3721 7.1709 54.2988 7.1709 54.2012 7.1709C54.1035 7.1709 54.0286 7.1709 53.9766 7.1709C53.9277 7.1709 53.8561 7.17253 53.7617 7.17578C53.6706 7.17904 53.599 7.18555 53.5469 7.19531C53.498 7.20508 53.4362 7.21647 53.3613 7.22949C53.2897 7.24251 53.2327 7.26042 53.1904 7.2832C53.1514 7.30599 53.1107 7.33366 53.0684 7.36621C53.0293 7.39551 53 7.43294 52.9805 7.47852C52.9642 7.52409 52.9561 7.57454 52.9561 7.62988C52.9561 7.81217 52.9479 8.09212 52.9316 8.46973C52.9154 8.84408 52.9072 9.13216 52.9072 9.33398C52.9072 9.94596 52.9251 10.4847 52.9609 10.9502C52.9609 11.1227 53.0553 11.2415 53.2441 11.3066C53.4362 11.3685 53.7568 11.3994 54.2061 11.3994ZM54.1963 12.0732C53.835 12.0732 53.5339 12.0586 53.293 12.0293C53.0521 12 52.8438 11.9365 52.668 11.8389C52.4954 11.738 52.3636 11.6322 52.2725 11.5215C52.1813 11.4076 52.1097 11.2301 52.0576 10.9893C52.0055 10.7451 51.973 10.5042 51.96 10.2666C51.9502 10.029 51.9453 9.69857 51.9453 9.27539C51.9453 8.95964 51.9486 8.69596 51.9551 8.48438C51.9648 8.27279 51.9844 8.06608 52.0137 7.86426C52.043 7.65918 52.0788 7.49479 52.1211 7.37109C52.1667 7.24414 52.2301 7.12533 52.3115 7.01465C52.3962 6.90072 52.4906 6.81445 52.5947 6.75586C52.6989 6.69727 52.8307 6.64681 52.9902 6.60449C53.153 6.55892 53.3288 6.52962 53.5176 6.5166C53.7096 6.50033 53.9375 6.49219 54.2012 6.49219C54.4648 6.49219 54.6911 6.50033 54.8799 6.5166C55.0719 6.52962 55.2477 6.55892 55.4072 6.60449C55.57 6.64681 55.7035 6.69727 55.8076 6.75586C55.9118 6.81445 56.0046 6.90072 56.0859 7.01465C56.1706 7.12533 56.234 7.24414 56.2764 7.37109C56.3219 7.49479 56.3594 7.65918 56.3887 7.86426C56.418 8.06608 56.4359 8.27279 56.4424 8.48438C56.4521 8.69596 56.457 8.95964 56.457 9.27539C56.457 9.69857 56.4505 10.029 56.4375 10.2666C56.4277 10.5042 56.3968 10.7451 56.3447 10.9893C56.2926 11.2301 56.2194 11.4076 56.125 11.5215C56.0339 11.6354 55.9004 11.7412 55.7246 11.8389C55.5521 11.9365 55.3454 12 55.1045 12.0293C54.8636 12.0586 54.5609 12.0732 54.1963 12.0732ZM57.7852 12C57.7852 11.8763 57.7852 11.6908 57.7852 11.4434C57.7884 11.196 57.79 11.0104 57.79 10.8867H58.7471C58.7471 11.0104 58.7471 11.196 58.7471 11.4434C58.7503 11.6908 58.752 11.8763 58.752 12H57.7852ZM58.4053 9.39258C58.3955 9.50977 58.3483 9.56836 58.2637 9.56836C58.179 9.56836 58.1318 9.50977 58.1221 9.39258C57.8649 6.69076 57.7363 5.25195 57.7363 5.07617C57.7363 4.8418 57.7754 4.6709 57.8535 4.56348C57.9316 4.45605 58.0684 4.40234 58.2637 4.40234C58.459 4.40234 58.5957 4.45605 58.6738 4.56348C58.752 4.6709 58.791 4.8418 58.791 5.07617C58.791 5.25195 58.6624 6.69076 58.4053 9.39258ZM67.3799 12H66.374L65.8223 10.1396H63.1318L62.5996 12H61.6475L63.8789 4.72461H65.2021L67.3799 12ZM65.6172 9.43652L65.002 7.25391L64.4941 5.4668C64.3053 6.14062 64.1393 6.72005 63.9961 7.20508L63.3418 9.43652H65.6172ZM75.4658 12H74.5039V8.74805C74.5039 8.38021 74.5088 8.10026 74.5186 7.9082C74.5186 7.79102 74.5104 7.69661 74.4941 7.625C74.4779 7.55013 74.4421 7.47363 74.3867 7.39551C74.3314 7.31738 74.2402 7.26042 74.1133 7.22461C73.9863 7.18555 73.8236 7.16602 73.625 7.16602C73.4069 7.16602 73.223 7.18066 73.0732 7.20996C72.9268 7.236 72.8079 7.27344 72.7168 7.32227C72.6289 7.36784 72.5605 7.43457 72.5117 7.52246C72.4629 7.61035 72.4303 7.70312 72.4141 7.80078C72.401 7.89518 72.3945 8.01888 72.3945 8.17188C72.3945 8.24349 72.3962 8.37207 72.3994 8.55762C72.4059 8.73991 72.4092 8.88802 72.4092 9.00195V12H71.4473V8.57227C71.4473 8.55599 71.4473 8.5332 71.4473 8.50391C71.4473 8.28255 71.4456 8.12467 71.4424 8.03027C71.4391 7.93262 71.4261 7.82031 71.4033 7.69336C71.3838 7.56315 71.3529 7.47526 71.3105 7.42969C71.2715 7.38411 71.2096 7.33529 71.125 7.2832C71.0404 7.23112 70.9378 7.19857 70.8174 7.18555C70.6969 7.17253 70.5439 7.16602 70.3584 7.16602C70.2412 7.16602 70.1289 7.17415 70.0215 7.19043C69.9173 7.20345 69.8164 7.22624 69.7188 7.25879C69.6211 7.29134 69.5413 7.33854 69.4795 7.40039C69.4176 7.46224 69.3851 7.53548 69.3818 7.62012C69.3395 8.05306 69.3184 8.52832 69.3184 9.0459V12H68.3564V6.64355H69.2354L69.3281 7.22949C69.4583 6.96582 69.6455 6.77865 69.8896 6.66797C70.1338 6.55729 70.443 6.50195 70.8174 6.50195C71.1852 6.50195 71.4782 6.56055 71.6963 6.67773C71.9144 6.79492 72.0739 6.98698 72.1748 7.25391C72.4352 6.74609 72.9495 6.49219 73.7178 6.49219C73.9684 6.49219 74.1816 6.50684 74.3574 6.53613C74.5365 6.56217 74.6927 6.61263 74.8262 6.6875C74.9596 6.76237 75.0654 6.85189 75.1436 6.95605C75.2249 7.06022 75.29 7.2002 75.3389 7.37598C75.3877 7.5485 75.4202 7.73893 75.4365 7.94727C75.4561 8.1556 75.4658 8.41113 75.4658 8.71387V12ZM81.1543 9.24609C80.7637 9.28516 80.5212 9.30794 80.4268 9.31445H77.7656C77.7689 9.78646 77.7819 10.304 77.8047 10.8672C77.821 11.0853 77.9137 11.2301 78.083 11.3018C78.2555 11.3701 78.5892 11.4043 79.084 11.4043C79.2695 11.4043 79.429 11.3978 79.5625 11.3848C79.696 11.3685 79.8034 11.3424 79.8848 11.3066C79.9694 11.2676 80.0345 11.2318 80.0801 11.1992C80.1289 11.1634 80.1647 11.1097 80.1875 11.0381C80.2103 10.9632 80.2249 10.9014 80.2314 10.8525C80.238 10.8005 80.2445 10.724 80.251 10.623C80.2575 10.5189 80.2656 10.4342 80.2754 10.3691L81.0225 10.5059C81.016 10.7337 80.9997 10.9274 80.9736 11.0869C80.9476 11.2432 80.9036 11.3815 80.8418 11.502C80.7799 11.6224 80.7067 11.7184 80.6221 11.79C80.5374 11.8584 80.4235 11.9154 80.2803 11.9609C80.137 12.0065 79.9792 12.0358 79.8066 12.0488C79.6341 12.0651 79.4209 12.0732 79.167 12.0732C78.8415 12.0732 78.5583 12.0537 78.3174 12.0146C78.0765 11.9788 77.8698 11.9333 77.6973 11.8779C77.528 11.8226 77.388 11.7331 77.2773 11.6094C77.1667 11.4824 77.0788 11.362 77.0137 11.248C76.9518 11.1341 76.9062 10.9665 76.877 10.7451C76.8477 10.5238 76.8281 10.3236 76.8184 10.1445C76.8118 9.96224 76.8086 9.71159 76.8086 9.39258C76.8086 8.94336 76.8135 8.59342 76.8232 8.34277C76.8363 8.09212 76.8688 7.84147 76.9209 7.59082C76.973 7.33691 77.043 7.15299 77.1309 7.03906C77.2188 6.92513 77.349 6.81934 77.5215 6.72168C77.694 6.62402 77.8975 6.56217 78.1318 6.53613C78.3662 6.50684 78.6641 6.49219 79.0254 6.49219C79.276 6.49219 79.4925 6.50033 79.6748 6.5166C79.8571 6.52962 80.0247 6.55892 80.1777 6.60449C80.3307 6.65007 80.4561 6.70215 80.5537 6.76074C80.6546 6.81934 80.7425 6.9056 80.8174 7.01953C80.8955 7.13346 80.9541 7.25228 80.9932 7.37598C81.0355 7.49642 81.0697 7.65755 81.0957 7.85938C81.1217 8.0612 81.138 8.26628 81.1445 8.47461C81.151 8.67969 81.1543 8.93685 81.1543 9.24609ZM77.7705 8.80176H80.1924C80.1859 8.38509 80.1696 8.00423 80.1436 7.65918C80.1305 7.46061 80.0443 7.32878 79.8848 7.26367C79.7285 7.19531 79.4404 7.16113 79.0205 7.16113C78.555 7.16113 78.2604 7.18717 78.1367 7.23926C78.0814 7.25553 78.0326 7.28483 77.9902 7.32715C77.9512 7.36621 77.9186 7.42318 77.8926 7.49805C77.8665 7.57292 77.8454 7.6429 77.8291 7.70801C77.8161 7.77311 77.8047 7.86426 77.7949 7.98145C77.7884 8.09538 77.7835 8.1849 77.7803 8.25C77.777 8.31185 77.7738 8.40788 77.7705 8.53809C77.7705 8.66829 77.7705 8.75618 77.7705 8.80176ZM86.6963 12H85.7344V8.75781C85.7344 8.54948 85.7327 8.38346 85.7295 8.25977C85.7295 8.13281 85.723 8.00586 85.71 7.87891C85.7002 7.75195 85.6888 7.65755 85.6758 7.5957C85.6628 7.5306 85.6383 7.46712 85.6025 7.40527C85.57 7.34017 85.5358 7.29622 85.5 7.27344C85.4642 7.25065 85.4121 7.22949 85.3438 7.20996C85.2754 7.18717 85.207 7.17415 85.1387 7.1709C85.0703 7.16764 84.9792 7.16602 84.8652 7.16602C84.6178 7.16602 84.4062 7.18066 84.2305 7.20996C84.0579 7.236 83.9163 7.27344 83.8057 7.32227C83.695 7.37109 83.6087 7.43945 83.5469 7.52734C83.4883 7.61523 83.4476 7.71126 83.4248 7.81543C83.402 7.91634 83.3906 8.04167 83.3906 8.19141C83.3906 8.27604 83.3955 8.42415 83.4053 8.63574C83.415 8.84408 83.4199 9.01335 83.4199 9.14355V12H82.458V6.64355H83.3369L83.4297 7.24414C83.5143 6.97721 83.7015 6.78516 83.9912 6.66797C84.2809 6.55078 84.626 6.49219 85.0264 6.49219C85.2152 6.49219 85.3828 6.50358 85.5293 6.52637C85.6758 6.54915 85.806 6.58822 85.9199 6.64355C86.0339 6.69564 86.1315 6.75586 86.2129 6.82422C86.2975 6.89258 86.3675 6.98372 86.4229 7.09766C86.4814 7.20833 86.5286 7.32227 86.5645 7.43945C86.6003 7.55664 86.6279 7.70312 86.6475 7.87891C86.667 8.05469 86.68 8.23047 86.6865 8.40625C86.693 8.57878 86.6963 8.78548 86.6963 9.02637V12ZM92.1211 12H91.3594L91.2031 11.2334C91.1055 11.5687 90.9281 11.7933 90.6709 11.9072C90.417 12.0179 90.0443 12.0732 89.5527 12.0732C89.2272 12.0732 88.9603 12.0423 88.752 11.9805C88.5436 11.9154 88.3776 11.8079 88.2539 11.6582C88.1302 11.5085 88.0439 11.3262 87.9951 11.1113C87.9495 10.8932 87.9268 10.6133 87.9268 10.2715C87.9268 10.1185 87.9528 9.98177 88.0049 9.86133C88.0602 9.74089 88.1335 9.63835 88.2246 9.55371C88.319 9.46908 88.4427 9.39583 88.5957 9.33398C88.752 9.27214 88.9131 9.22331 89.0791 9.1875C89.2451 9.15169 89.4453 9.12402 89.6797 9.10449C89.9173 9.08171 90.1484 9.06706 90.373 9.06055C90.5977 9.05404 90.8597 9.05078 91.1592 9.05078V7.60059C91.1592 7.43457 91.0811 7.32064 90.9248 7.25879C90.7686 7.19368 90.4902 7.16113 90.0898 7.16113C89.8099 7.16113 89.5999 7.16764 89.46 7.18066C89.32 7.19368 89.2126 7.23275 89.1377 7.29785C89.0661 7.3597 89.0238 7.42155 89.0107 7.4834C89.001 7.54525 88.9945 7.66081 88.9912 7.83008C88.988 7.89193 88.9863 7.94076 88.9863 7.97656L88.2393 7.94727C88.2327 7.89518 88.2295 7.81868 88.2295 7.71777C88.2295 7.49967 88.2604 7.31576 88.3223 7.16602C88.3874 7.01302 88.4704 6.89421 88.5713 6.80957C88.6722 6.72168 88.8105 6.65332 88.9863 6.60449C89.1621 6.55566 89.3363 6.52474 89.5088 6.51172C89.6813 6.4987 89.8962 6.49219 90.1533 6.49219C90.5439 6.49219 90.8613 6.52311 91.1055 6.58496C91.3496 6.64355 91.5498 6.75098 91.7061 6.90723C91.8623 7.06348 91.9697 7.26367 92.0283 7.50781C92.0902 7.7487 92.1211 8.06445 92.1211 8.45508V12ZM91.1592 10.4668V9.63184C90.5179 9.63184 90.0247 9.65625 89.6797 9.70508C89.3346 9.75391 89.1035 9.82227 88.9863 9.91016C88.8724 9.99479 88.8154 10.1152 88.8154 10.2715C88.8154 10.278 88.8154 10.2878 88.8154 10.3008C88.8154 10.7956 88.8561 11.1032 88.9375 11.2236C89.0189 11.3441 89.2679 11.4043 89.6846 11.4043C90.0394 11.4043 90.3275 11.362 90.5488 11.2773C90.7702 11.1927 90.9232 11.0853 91.0078 10.9551C91.0957 10.8216 91.1462 10.6589 91.1592 10.4668ZM96.6768 12H93.3076L93.2246 11.3115L95.7295 7.3125H93.4492L93.4053 6.64355H96.6475L96.6914 7.3125L94.1963 11.3408H96.7207L96.6768 12ZM101.75 12H100.988L100.832 11.2334C100.734 11.5687 100.557 11.7933 100.3 11.9072C100.046 12.0179 99.6732 12.0732 99.1816 12.0732C98.8561 12.0732 98.5892 12.0423 98.3809 11.9805C98.1725 11.9154 98.0065 11.8079 97.8828 11.6582C97.7591 11.5085 97.6729 11.3262 97.624 11.1113C97.5785 10.8932 97.5557 10.6133 97.5557 10.2715C97.5557 10.1185 97.5817 9.98177 97.6338 9.86133C97.6891 9.74089 97.7624 9.63835 97.8535 9.55371C97.9479 9.46908 98.0716 9.39583 98.2246 9.33398C98.3809 9.27214 98.542 9.22331 98.708 9.1875C98.874 9.15169 99.0742 9.12402 99.3086 9.10449C99.5462 9.08171 99.7773 9.06706 100.002 9.06055C100.227 9.05404 100.489 9.05078 100.788 9.05078V7.60059C100.788 7.43457 100.71 7.32064 100.554 7.25879C100.397 7.19368 100.119 7.16113 99.7188 7.16113C99.4388 7.16113 99.2288 7.16764 99.0889 7.18066C98.9489 7.19368 98.8415 7.23275 98.7666 7.29785C98.695 7.3597 98.6527 7.42155 98.6396 7.4834C98.6299 7.54525 98.6234 7.66081 98.6201 7.83008C98.6169 7.89193 98.6152 7.94076 98.6152 7.97656L97.8682 7.94727C97.8617 7.89518 97.8584 7.81868 97.8584 7.71777C97.8584 7.49967 97.8893 7.31576 97.9512 7.16602C98.0163 7.01302 98.0993 6.89421 98.2002 6.80957C98.3011 6.72168 98.4395 6.65332 98.6152 6.60449C98.791 6.55566 98.9652 6.52474 99.1377 6.51172C99.3102 6.4987 99.5251 6.49219 99.7822 6.49219C100.173 6.49219 100.49 6.52311 100.734 6.58496C100.979 6.64355 101.179 6.75098 101.335 6.90723C101.491 7.06348 101.599 7.26367 101.657 7.50781C101.719 7.7487 101.75 8.06445 101.75 8.45508V12ZM100.788 10.4668V9.63184C100.147 9.63184 99.6536 9.65625 99.3086 9.70508C98.9635 9.75391 98.7324 9.82227 98.6152 9.91016C98.5013 9.99479 98.4443 10.1152 98.4443 10.2715C98.4443 10.278 98.4443 10.2878 98.4443 10.3008C98.4443 10.7956 98.485 11.1032 98.5664 11.2236C98.6478 11.3441 98.8968 11.4043 99.3135 11.4043C99.6683 11.4043 99.9564 11.362 100.178 11.2773C100.399 11.1927 100.552 11.0853 100.637 10.9551C100.725 10.8216 100.775 10.6589 100.788 10.4668ZM109.44 12H108.562L108.469 11.3262C108.27 11.8242 107.751 12.0732 106.911 12.0732C106.687 12.0732 106.485 12.0586 106.306 12.0293C106.13 12 105.977 11.9495 105.847 11.8779C105.72 11.8063 105.611 11.7331 105.52 11.6582C105.428 11.5801 105.352 11.4694 105.29 11.3262C105.231 11.1797 105.184 11.0479 105.148 10.9307C105.116 10.8102 105.091 10.6442 105.075 10.4326C105.059 10.221 105.049 10.0371 105.046 9.88086C105.043 9.72135 105.041 9.50651 105.041 9.23633C105.041 8.97266 105.044 8.74479 105.051 8.55273C105.061 8.36068 105.077 8.17025 105.1 7.98145C105.126 7.79264 105.158 7.63477 105.197 7.50781C105.24 7.3776 105.295 7.25228 105.363 7.13184C105.432 7.01139 105.513 6.91536 105.607 6.84375C105.705 6.76888 105.821 6.70378 105.954 6.64844C106.088 6.58984 106.241 6.54915 106.413 6.52637C106.586 6.50358 106.781 6.49219 106.999 6.49219C107.419 6.49219 107.744 6.54915 107.976 6.66309C108.21 6.77376 108.378 6.95117 108.479 7.19531V4.58301L109.44 4.50488V12ZM108.479 10.7549V7.9082C108.479 7.625 108.391 7.43132 108.215 7.32715C108.039 7.21973 107.709 7.16602 107.224 7.16602C106.846 7.16602 106.566 7.19368 106.384 7.24902C106.234 7.2946 106.133 7.42969 106.081 7.6543C106.029 7.87565 106.003 8.17513 106.003 8.55273C106.003 9.10286 106.013 9.87272 106.032 10.8623C106.049 11.0771 106.135 11.222 106.291 11.2969C106.451 11.3685 106.761 11.4043 107.224 11.4043C107.679 11.4043 107.997 11.3587 108.176 11.2676C108.358 11.1764 108.459 11.0055 108.479 10.7549ZM115.07 9.24609C114.68 9.28516 114.437 9.30794 114.343 9.31445H111.682C111.685 9.78646 111.698 10.304 111.721 10.8672C111.737 11.0853 111.83 11.2301 111.999 11.3018C112.172 11.3701 112.505 11.4043 113 11.4043C113.186 11.4043 113.345 11.3978 113.479 11.3848C113.612 11.3685 113.719 11.3424 113.801 11.3066C113.885 11.2676 113.951 11.2318 113.996 11.1992C114.045 11.1634 114.081 11.1097 114.104 11.0381C114.126 10.9632 114.141 10.9014 114.147 10.8525C114.154 10.8005 114.16 10.724 114.167 10.623C114.174 10.5189 114.182 10.4342 114.191 10.3691L114.938 10.5059C114.932 10.7337 114.916 10.9274 114.89 11.0869C114.864 11.2432 114.82 11.3815 114.758 11.502C114.696 11.6224 114.623 11.7184 114.538 11.79C114.453 11.8584 114.34 11.9154 114.196 11.9609C114.053 12.0065 113.895 12.0358 113.723 12.0488C113.55 12.0651 113.337 12.0732 113.083 12.0732C112.757 12.0732 112.474 12.0537 112.233 12.0146C111.993 11.9788 111.786 11.9333 111.613 11.8779C111.444 11.8226 111.304 11.7331 111.193 11.6094C111.083 11.4824 110.995 11.362 110.93 11.248C110.868 11.1341 110.822 10.9665 110.793 10.7451C110.764 10.5238 110.744 10.3236 110.734 10.1445C110.728 9.96224 110.725 9.71159 110.725 9.39258C110.725 8.94336 110.729 8.59342 110.739 8.34277C110.752 8.09212 110.785 7.84147 110.837 7.59082C110.889 7.33691 110.959 7.15299 111.047 7.03906C111.135 6.92513 111.265 6.81934 111.438 6.72168C111.61 6.62402 111.813 6.56217 112.048 6.53613C112.282 6.50684 112.58 6.49219 112.941 6.49219C113.192 6.49219 113.409 6.50033 113.591 6.5166C113.773 6.52962 113.941 6.55892 114.094 6.60449C114.247 6.65007 114.372 6.70215 114.47 6.76074C114.571 6.81934 114.659 6.9056 114.733 7.01953C114.812 7.13346 114.87 7.25228 114.909 7.37598C114.951 7.49642 114.986 7.65755 115.012 7.85938C115.038 8.0612 115.054 8.26628 115.061 8.47461C115.067 8.67969 115.07 8.93685 115.07 9.24609ZM111.687 8.80176H114.108C114.102 8.38509 114.086 8.00423 114.06 7.65918C114.047 7.46061 113.96 7.32878 113.801 7.26367C113.645 7.19531 113.356 7.16113 112.937 7.16113C112.471 7.16113 112.176 7.18717 112.053 7.23926C111.997 7.25553 111.949 7.28483 111.906 7.32715C111.867 7.36621 111.835 7.42318 111.809 7.49805C111.783 7.57292 111.761 7.6429 111.745 7.70801C111.732 7.77311 111.721 7.86426 111.711 7.98145C111.704 8.09538 111.7 8.1849 111.696 8.25C111.693 8.31185 111.69 8.40788 111.687 8.53809C111.687 8.66829 111.687 8.75618 111.687 8.80176ZM118.493 11.3213L118.474 12.0049C118.2 12.0505 117.953 12.0732 117.731 12.0732C117.494 12.0732 117.297 12.0472 117.141 11.9951C116.988 11.943 116.872 11.86 116.794 11.7461C116.716 11.6322 116.662 11.5068 116.633 11.3701C116.604 11.2301 116.589 11.0527 116.589 10.8379V7.19043H115.861V6.64355H116.589V5.12012L117.546 5.04199V6.64355H118.532V7.19043H117.546V10.5107C117.546 10.8623 117.562 11.0902 117.595 11.1943C117.631 11.2985 117.725 11.3506 117.878 11.3506C118.028 11.3506 118.233 11.3408 118.493 11.3213ZM123.947 9.24609C123.557 9.28516 123.314 9.30794 123.22 9.31445H120.559C120.562 9.78646 120.575 10.304 120.598 10.8672C120.614 11.0853 120.707 11.2301 120.876 11.3018C121.049 11.3701 121.382 11.4043 121.877 11.4043C122.062 11.4043 122.222 11.3978 122.355 11.3848C122.489 11.3685 122.596 11.3424 122.678 11.3066C122.762 11.2676 122.827 11.2318 122.873 11.1992C122.922 11.1634 122.958 11.1097 122.98 11.0381C123.003 10.9632 123.018 10.9014 123.024 10.8525C123.031 10.8005 123.037 10.724 123.044 10.623C123.05 10.5189 123.059 10.4342 123.068 10.3691L123.815 10.5059C123.809 10.7337 123.793 10.9274 123.767 11.0869C123.741 11.2432 123.697 11.3815 123.635 11.502C123.573 11.6224 123.5 11.7184 123.415 11.79C123.33 11.8584 123.216 11.9154 123.073 11.9609C122.93 12.0065 122.772 12.0358 122.6 12.0488C122.427 12.0651 122.214 12.0732 121.96 12.0732C121.634 12.0732 121.351 12.0537 121.11 12.0146C120.869 11.9788 120.663 11.9333 120.49 11.8779C120.321 11.8226 120.181 11.7331 120.07 11.6094C119.96 11.4824 119.872 11.362 119.807 11.248C119.745 11.1341 119.699 10.9665 119.67 10.7451C119.641 10.5238 119.621 10.3236 119.611 10.1445C119.605 9.96224 119.602 9.71159 119.602 9.39258C119.602 8.94336 119.606 8.59342 119.616 8.34277C119.629 8.09212 119.662 7.84147 119.714 7.59082C119.766 7.33691 119.836 7.15299 119.924 7.03906C120.012 6.92513 120.142 6.81934 120.314 6.72168C120.487 6.62402 120.69 6.56217 120.925 6.53613C121.159 6.50684 121.457 6.49219 121.818 6.49219C122.069 6.49219 122.285 6.50033 122.468 6.5166C122.65 6.52962 122.818 6.55892 122.971 6.60449C123.124 6.65007 123.249 6.70215 123.347 6.76074C123.448 6.81934 123.535 6.9056 123.61 7.01953C123.688 7.13346 123.747 7.25228 123.786 7.37598C123.828 7.49642 123.863 7.65755 123.889 7.85938C123.915 8.0612 123.931 8.26628 123.938 8.47461C123.944 8.67969 123.947 8.93685 123.947 9.24609ZM120.563 8.80176H122.985C122.979 8.38509 122.963 8.00423 122.937 7.65918C122.924 7.46061 122.837 7.32878 122.678 7.26367C122.521 7.19531 122.233 7.16113 121.813 7.16113C121.348 7.16113 121.053 7.18717 120.93 7.23926C120.874 7.25553 120.826 7.28483 120.783 7.32715C120.744 7.36621 120.712 7.42318 120.686 7.49805C120.66 7.57292 120.638 7.6429 120.622 7.70801C120.609 7.77311 120.598 7.86426 120.588 7.98145C120.581 8.09538 120.576 8.1849 120.573 8.25C120.57 8.31185 120.567 8.40788 120.563 8.53809C120.563 8.66829 120.563 8.75618 120.563 8.80176ZM129.313 8.18652L128.522 8.31836L128.42 7.63965C128.394 7.4834 128.363 7.38411 128.327 7.3418C128.243 7.24414 128.008 7.1888 127.624 7.17578C127.533 7.17253 127.432 7.1709 127.321 7.1709C126.879 7.1709 126.589 7.19531 126.452 7.24414C126.302 7.27018 126.193 7.41829 126.125 7.68848C126.057 7.95866 126.022 8.28906 126.022 8.67969L126.027 9.52441C126.027 9.6416 126.027 9.80273 126.027 10.0078C126.027 10.2747 126.027 10.4635 126.027 10.5742C126.027 10.6816 126.042 10.8053 126.071 10.9453C126.101 11.082 126.133 11.1683 126.169 11.2041C126.208 11.2367 126.28 11.2757 126.384 11.3213C126.488 11.3669 126.599 11.3913 126.716 11.3945C126.836 11.3978 127.009 11.3994 127.233 11.3994C127.409 11.3994 127.561 11.3929 127.688 11.3799C127.818 11.3669 127.927 11.3522 128.015 11.3359C128.106 11.3164 128.179 11.2855 128.234 11.2432C128.293 11.1976 128.337 11.1569 128.366 11.1211C128.399 11.0853 128.423 11.0299 128.439 10.9551C128.456 10.877 128.465 10.8102 128.469 10.7549C128.475 10.6995 128.482 10.6165 128.488 10.5059C128.495 10.3919 128.503 10.2959 128.513 10.2178L129.313 10.3545C129.294 10.6084 129.271 10.8118 129.245 10.9648C129.222 11.1178 129.182 11.266 129.123 11.4092C129.068 11.5524 128.996 11.6615 128.908 11.7363C128.824 11.8079 128.705 11.873 128.552 11.9316C128.402 11.9902 128.226 12.0277 128.024 12.0439C127.826 12.0635 127.577 12.0732 127.277 12.0732C127.062 12.0732 126.869 12.0667 126.696 12.0537C126.527 12.0407 126.372 12.0146 126.232 11.9756C126.092 11.9333 125.97 11.8942 125.866 11.8584C125.762 11.8193 125.669 11.7526 125.588 11.6582C125.51 11.5638 125.443 11.4824 125.388 11.4141C125.336 11.3457 125.292 11.235 125.256 11.082C125.22 10.929 125.192 10.7988 125.173 10.6914C125.153 10.584 125.139 10.4212 125.129 10.2031C125.119 9.98177 125.113 9.7946 125.109 9.6416C125.109 9.48861 125.109 9.26725 125.109 8.97754C125.109 8.71712 125.114 8.49251 125.124 8.30371C125.134 8.11165 125.153 7.92936 125.183 7.75684C125.212 7.58105 125.249 7.4362 125.295 7.32227C125.344 7.20508 125.407 7.09603 125.485 6.99512C125.567 6.89421 125.658 6.81445 125.759 6.75586C125.863 6.69727 125.99 6.64681 126.14 6.60449C126.293 6.56217 126.459 6.53288 126.638 6.5166C126.82 6.50033 127.032 6.49219 127.272 6.49219C127.582 6.49219 127.84 6.50846 128.049 6.54102C128.26 6.57031 128.448 6.62077 128.61 6.69238C128.773 6.764 128.902 6.86654 128.996 7C129.09 7.13021 129.164 7.29134 129.216 7.4834C129.268 7.6722 129.3 7.90658 129.313 8.18652ZM132.712 11.3213L132.692 12.0049C132.419 12.0505 132.172 12.0732 131.95 12.0732C131.713 12.0732 131.516 12.0472 131.359 11.9951C131.206 11.943 131.091 11.86 131.013 11.7461C130.935 11.6322 130.881 11.5068 130.852 11.3701C130.822 11.2301 130.808 11.0527 130.808 10.8379V7.19043H130.08V6.64355H130.808V5.12012L131.765 5.04199V6.64355H132.751V7.19043H131.765V10.5107C131.765 10.8623 131.781 11.0902 131.813 11.1943C131.849 11.2985 131.944 11.3506 132.097 11.3506C132.246 11.3506 132.451 11.3408 132.712 11.3213ZM137.902 12H137.141L136.984 11.2334C136.887 11.5687 136.709 11.7933 136.452 11.9072C136.198 12.0179 135.826 12.0732 135.334 12.0732C135.008 12.0732 134.742 12.0423 134.533 11.9805C134.325 11.9154 134.159 11.8079 134.035 11.6582C133.911 11.5085 133.825 11.3262 133.776 11.1113C133.731 10.8932 133.708 10.6133 133.708 10.2715C133.708 10.1185 133.734 9.98177 133.786 9.86133C133.841 9.74089 133.915 9.63835 134.006 9.55371C134.1 9.46908 134.224 9.39583 134.377 9.33398C134.533 9.27214 134.694 9.22331 134.86 9.1875C135.026 9.15169 135.227 9.12402 135.461 9.10449C135.699 9.08171 135.93 9.06706 136.154 9.06055C136.379 9.05404 136.641 9.05078 136.94 9.05078V7.60059C136.94 7.43457 136.862 7.32064 136.706 7.25879C136.55 7.19368 136.271 7.16113 135.871 7.16113C135.591 7.16113 135.381 7.16764 135.241 7.18066C135.101 7.19368 134.994 7.23275 134.919 7.29785C134.847 7.3597 134.805 7.42155 134.792 7.4834C134.782 7.54525 134.776 7.66081 134.772 7.83008C134.769 7.89193 134.768 7.94076 134.768 7.97656L134.021 7.94727C134.014 7.89518 134.011 7.81868 134.011 7.71777C134.011 7.49967 134.042 7.31576 134.104 7.16602C134.169 7.01302 134.252 6.89421 134.353 6.80957C134.453 6.72168 134.592 6.65332 134.768 6.60449C134.943 6.55566 135.118 6.52474 135.29 6.51172C135.463 6.4987 135.677 6.49219 135.935 6.49219C136.325 6.49219 136.643 6.52311 136.887 6.58496C137.131 6.64355 137.331 6.75098 137.487 6.90723C137.644 7.06348 137.751 7.26367 137.81 7.50781C137.871 7.7487 137.902 8.06445 137.902 8.45508V12ZM136.94 10.4668V9.63184C136.299 9.63184 135.806 9.65625 135.461 9.70508C135.116 9.75391 134.885 9.82227 134.768 9.91016C134.654 9.99479 134.597 10.1152 134.597 10.2715C134.597 10.278 134.597 10.2878 134.597 10.3008C134.597 10.7956 134.637 11.1032 134.719 11.2236C134.8 11.3441 135.049 11.4043 135.466 11.4043C135.821 11.4043 136.109 11.362 136.33 11.2773C136.551 11.1927 136.704 11.0853 136.789 10.9551C136.877 10.8216 136.927 10.6589 136.94 10.4668ZM143.64 12H142.761L142.668 11.3262C142.469 11.8242 141.95 12.0732 141.11 12.0732C140.886 12.0732 140.684 12.0586 140.505 12.0293C140.329 12 140.176 11.9495 140.046 11.8779C139.919 11.8063 139.81 11.7331 139.719 11.6582C139.628 11.5801 139.551 11.4694 139.489 11.3262C139.431 11.1797 139.383 11.0479 139.348 10.9307C139.315 10.8102 139.291 10.6442 139.274 10.4326C139.258 10.221 139.248 10.0371 139.245 9.88086C139.242 9.72135 139.24 9.50651 139.24 9.23633C139.24 8.97266 139.243 8.74479 139.25 8.55273C139.26 8.36068 139.276 8.17025 139.299 7.98145C139.325 7.79264 139.357 7.63477 139.396 7.50781C139.439 7.3776 139.494 7.25228 139.562 7.13184C139.631 7.01139 139.712 6.91536 139.807 6.84375C139.904 6.76888 140.02 6.70378 140.153 6.64844C140.287 6.58984 140.44 6.54915 140.612 6.52637C140.785 6.50358 140.98 6.49219 141.198 6.49219C141.618 6.49219 141.944 6.54915 142.175 6.66309C142.409 6.77376 142.577 6.95117 142.678 7.19531V4.58301L143.64 4.50488V12ZM142.678 10.7549V7.9082C142.678 7.625 142.59 7.43132 142.414 7.32715C142.238 7.21973 141.908 7.16602 141.423 7.16602C141.045 7.16602 140.765 7.19368 140.583 7.24902C140.433 7.2946 140.332 7.42969 140.28 7.6543C140.228 7.87565 140.202 8.17513 140.202 8.55273C140.202 9.10286 140.212 9.87272 140.231 10.8623C140.248 11.0771 140.334 11.222 140.49 11.2969C140.65 11.3685 140.961 11.4043 141.423 11.4043C141.879 11.4043 142.196 11.3587 142.375 11.2676C142.557 11.1764 142.658 11.0055 142.678 10.7549ZM149.084 12H148.322L148.166 11.2334C148.068 11.5687 147.891 11.7933 147.634 11.9072C147.38 12.0179 147.007 12.0732 146.516 12.0732C146.19 12.0732 145.923 12.0423 145.715 11.9805C145.507 11.9154 145.34 11.8079 145.217 11.6582C145.093 11.5085 145.007 11.3262 144.958 11.1113C144.912 10.8932 144.89 10.6133 144.89 10.2715C144.89 10.1185 144.916 9.98177 144.968 9.86133C145.023 9.74089 145.096 9.63835 145.188 9.55371C145.282 9.46908 145.406 9.39583 145.559 9.33398C145.715 9.27214 145.876 9.22331 146.042 9.1875C146.208 9.15169 146.408 9.12402 146.643 9.10449C146.88 9.08171 147.111 9.06706 147.336 9.06055C147.561 9.05404 147.823 9.05078 148.122 9.05078V7.60059C148.122 7.43457 148.044 7.32064 147.888 7.25879C147.731 7.19368 147.453 7.16113 147.053 7.16113C146.773 7.16113 146.563 7.16764 146.423 7.18066C146.283 7.19368 146.175 7.23275 146.101 7.29785C146.029 7.3597 145.987 7.42155 145.974 7.4834C145.964 7.54525 145.957 7.66081 145.954 7.83008C145.951 7.89193 145.949 7.94076 145.949 7.97656L145.202 7.94727C145.196 7.89518 145.192 7.81868 145.192 7.71777C145.192 7.49967 145.223 7.31576 145.285 7.16602C145.35 7.01302 145.433 6.89421 145.534 6.80957C145.635 6.72168 145.773 6.65332 145.949 6.60449C146.125 6.55566 146.299 6.52474 146.472 6.51172C146.644 6.4987 146.859 6.49219 147.116 6.49219C147.507 6.49219 147.824 6.52311 148.068 6.58496C148.312 6.64355 148.513 6.75098 148.669 6.90723C148.825 7.06348 148.933 7.26367 148.991 7.50781C149.053 7.7487 149.084 8.06445 149.084 8.45508V12ZM148.122 10.4668V9.63184C147.481 9.63184 146.988 9.65625 146.643 9.70508C146.298 9.75391 146.066 9.82227 145.949 9.91016C145.835 9.99479 145.778 10.1152 145.778 10.2715C145.778 10.278 145.778 10.2878 145.778 10.3008C145.778 10.7956 145.819 11.1032 145.9 11.2236C145.982 11.3441 146.231 11.4043 146.647 11.4043C147.002 11.4043 147.29 11.362 147.512 11.2773C147.733 11.1927 147.886 11.0853 147.971 10.9551C148.059 10.8216 148.109 10.6589 148.122 10.4668Z" fill="#FFE600"/>
</svg>
